<?xml version="1.0" encoding="UTF-8"?>
<svg version="1.1" xmlns="http://www.w3.org/2000/svg" width="500" height="500">
<path d="M0 0 C3.96 0 7.92 0 12 0 C12 11.55 12 23.1 12 35 C15.3 35 18.6 35 22 35 C21.99214478 33.46291382 21.99214478 33.46291382 21.98413086 31.89477539 C21.96608031 28.10604724 21.9545678 24.31732291 21.94506836 20.52856445 C21.94002826 18.88630536 21.93319622 17.24405077 21.92456055 15.60180664 C21.91248074 13.24624521 21.90676861 10.89074291 21.90234375 8.53515625 C21.89718246 7.79660904 21.89202118 7.05806183 21.88670349 6.2971344 C21.8865075 4.53101912 21.93805281 2.76502854 22 1 C22.33 0.67 22.66 0.34 23 0 C26.63 0 30.26 0 34 0 C34 26.4 34 52.8 34 80 C30.04 80 26.08 80 22 80 C22 68.45 22 56.9 22 45 C18.7 45 15.4 45 12 45 C12 56.55 12 68.1 12 80 C8.04 80 4.08 80 0 80 C0 53.6 0 27.2 0 0 Z " fill="#1B07A0" transform="translate(260,198)"/>
<path d="M0 0 C25.92307692 0 25.92307692 0 31.5 5.4375 C35.20578515 11.76821629 34.26006913 19.12639201 34.3125 26.25 C34.34150391 27.54808594 34.37050781 28.84617188 34.40039062 30.18359375 C34.44953979 37.60133708 34.16079159 42.7626159 30 49 C24.27163703 53.58269038 20.01207231 52 12 52 C12 61.24 12 70.48 12 80 C8.04 80 4.08 80 0 80 C0 53.6 0 27.2 0 0 Z M12 11 C12 21.23 12 31.46 12 42 C18.40485291 42.64715023 18.40485291 42.64715023 20.875 40.75 C23.71147195 36.33771031 23.18344342 31.11294809 23.1875 26.0625 C23.19974609 25.26392578 23.21199219 24.46535156 23.22460938 23.64257812 C23.23535377 19.31975076 23.06167741 15.91642066 21 12 C20.67 11.67 20.34 11.34 20 11 C17.36 11 14.72 11 12 11 Z " fill="#1903A5" transform="translate(220,198)"/>
<path d="M0 0 C3.41639845 1.9739191 4.72268412 3.18538459 6 6.9375 C6 10.60292141 5.23178648 12.13056023 3 15 C0 17 0 17 -3.5 16.75 C-7 16 -7 16 -10 14 C-10 13.34 -10 12.68 -10 12 C-13.16794899 12.05249744 -16.33329878 12.14770488 -19.5 12.25 C-20.8303125 12.27126953 -20.8303125 12.27126953 -22.1875 12.29296875 C-29.49281761 12.5615466 -35.17994955 14.10573769 -40.375 19.4375 C-43.54859576 24.44201639 -44.29823461 28.64624407 -44.29052734 34.5090332 C-44.29724457 35.24793793 -44.30396179 35.98684265 -44.31088257 36.74813843 C-44.32982555 39.18242179 -44.33378501 41.61642884 -44.3359375 44.05078125 C-44.34236856 45.75083019 -44.34909715 47.45087804 -44.35610962 49.15092468 C-44.36807352 52.71254033 -44.37179141 56.27405905 -44.37060547 59.83569336 C-44.37040246 64.3851702 -44.3976898 68.93402112 -44.43214989 73.4833498 C-44.45445963 76.99481524 -44.45844175 80.5061311 -44.45738602 84.01766014 C-44.45973641 85.69409527 -44.46852815 87.37053488 -44.48405075 89.0468998 C-44.89622811 102.31544312 -44.89622811 102.31544312 -38.5171814 113.53315735 C-32.8512008 118.57023522 -27.72856381 118.21144687 -20.5625 118.25 C-19.60794922 118.270625 -18.65339844 118.29125 -17.66992188 118.3125 C-16.28836914 118.32023437 -16.28836914 118.32023437 -14.87890625 118.328125 C-14.0391626 118.3374707 -13.19941895 118.34681641 -12.33422852 118.35644531 C-9.49351474 117.92265783 -8.22944866 116.75534598 -6 115 C-2.07403706 114.50925463 0.0688869 114.36292261 3.375 116.625 C5.37108249 119.54235134 5.8560483 121.47318331 6 125 C5.25662602 127.97349592 4.71296033 129.46527975 2.25 131.3125 C-0.77048216 132.2354251 -2.85316396 132.44954801 -6 132 C-8.875 129.6875 -8.875 129.6875 -11 127 C-11 126.01 -11 125.02 -11 124 C-11.56396484 124.01571045 -12.12792969 124.0314209 -12.70898438 124.04760742 C-15.30588435 124.11061574 -17.90262275 124.14919598 -20.5 124.1875 C-21.386875 124.21263672 -22.27375 124.23777344 -23.1875 124.26367188 C-31.29141057 124.35305324 -37.98419295 122.84870129 -44 117 C-48.99613921 110.57639244 -50.24636727 104.39971503 -50.2746582 96.37158203 C-50.27976913 95.64374512 -50.28488007 94.9159082 -50.29014587 94.16601562 C-50.30395103 91.77986231 -50.3030919 89.39400081 -50.30078125 87.0078125 C-50.30467338 85.33543797 -50.30900911 83.66306443 -50.31376648 81.99069214 C-50.32120934 78.49229726 -50.32095164 74.99400334 -50.31567383 71.49560547 C-50.30988404 67.03157751 -50.32680762 62.56796513 -50.3500185 58.10400581 C-50.3648127 54.651699 -50.3656198 51.19949095 -50.36250877 47.74715805 C-50.36301921 46.10226494 -50.36820426 44.45736589 -50.37832069 42.81250381 C-50.44067475 31.25645994 -50.2625289 21.53597476 -41.8984375 12.66015625 C-35.42963352 7.00328035 -27.35171189 6.84853541 -19.1875 6.9375 C-18.00510742 6.94426758 -18.00510742 6.94426758 -16.79882812 6.95117188 C-14.86585239 6.96288688 -12.93291607 6.98082002 -11 7 C-10.731875 6.21625 -10.46375 5.4325 -10.1875 4.625 C-8.0001261 -0.21024757 -4.89997571 -0.58799708 0 0 Z " fill="#F5D446" transform="translate(251,172)"/>
<path d="M0 0 C3.3 0 6.6 0 10 0 C10.33 11.88 10.66 23.76 11 36 C14.63 36 18.26 36 22 36 C22.33 36.66 22.66 37.32 23 38 C22.34 38 21.68 38 21 38 C21.33 38.99 21.66 39.98 22 41 C19.13255824 43.86744176 14.03852125 42.6328617 10 43 C10 54.55 10 66.1 10 78 C6.7 78 3.4 78 0 78 C0 52.26 0 26.52 0 0 Z " fill="#1700AA" transform="translate(261,199)"/>
<path d="M0 0 C3.41639845 1.9739191 4.72268412 3.18538459 6 6.9375 C6 10.60292141 5.23178648 12.13056023 3 15 C0 17 0 17 -3.5 16.75 C-7 16 -7 16 -10 14 C-10 13.34 -10 12.68 -10 12 C-13.16794899 12.05249744 -16.33329878 12.14770488 -19.5 12.25 C-20.8303125 12.27126953 -20.8303125 12.27126953 -22.1875 12.29296875 C-29.49281761 12.5615466 -35.17994955 14.10573769 -40.375 19.4375 C-43.98379663 25.12829469 -44.3267194 29.87092778 -44.4140625 36.45703125 C-44.43342865 37.35999435 -44.4527948 38.26295746 -44.4727478 39.19328308 C-44.53234082 42.06626047 -44.57884769 44.93927837 -44.625 47.8125 C-44.66319845 49.76499105 -44.70225127 51.71746559 -44.7421875 53.66992188 C-44.83802569 58.44647984 -44.92213152 63.22311667 -45 68 C-45.99 68.495 -45.99 68.495 -47 69 C-47.33 68.01 -47.66 67.02 -48 66 C-48.99 66.99 -48.99 66.99 -50 68 C-50.07462464 62.46820973 -50.12882498 56.93671795 -50.16479492 51.40454102 C-50.17980333 49.5259083 -50.20021652 47.64731016 -50.22631836 45.76879883 C-50.26305386 43.05541407 -50.27980607 40.3424959 -50.29296875 37.62890625 C-50.30845261 36.80040665 -50.32393646 35.97190704 -50.33988953 35.11830139 C-50.34241311 26.20695022 -48.04027317 19.17775824 -41.8984375 12.66015625 C-35.42963352 7.00328035 -27.35171189 6.84853541 -19.1875 6.9375 C-18.00510742 6.94426758 -18.00510742 6.94426758 -16.79882812 6.95117188 C-14.86585239 6.96288688 -12.93291607 6.98082002 -11 7 C-10.731875 6.21625 -10.46375 5.4325 -10.1875 4.625 C-8.0001261 -0.21024757 -4.89997571 -0.58799708 0 0 Z " fill="#713B85" transform="translate(251,172)"/>
<path d="M0 0 C3.84176119 0.62722632 5.43083788 1.64276685 8.0625 4.5 C9.29924251 8.13293114 9.40708203 9.74191953 7.8125 13.25 C6.0625 15.5 6.0625 15.5 3.0625 17.5 C-0.375 17.375 -0.375 17.375 -3.9375 16.5 C-4.48019531 15.83742187 -5.02289063 15.17484375 -5.58203125 14.4921875 C-9.14754003 11.47658306 -12.65247815 11.82794569 -17.1875 11.75 C-18.02796875 11.72035156 -18.8684375 11.69070312 -19.734375 11.66015625 C-21.8015715 11.58968364 -23.86954033 11.54255061 -25.9375 11.5 C-25.2775 10.51 -24.6175 9.52 -23.9375 8.5 C-21.1489711 8.27892213 -18.59096819 8.21892465 -15.8125 8.3125 C-15.05839844 8.32603516 -14.30429688 8.33957031 -13.52734375 8.35351562 C-11.66375873 8.38890015 -9.80054022 8.44270833 -7.9375 8.5 C-7.80730469 7.88640625 -7.67710937 7.2728125 -7.54296875 6.640625 C-6.37541558 2.5127596 -4.16936186 0.70967862 0 0 Z " fill="#79309A" transform="translate(247.9375,171.5)"/>
<path d="M0 0 C0.28875 0.61875 0.5775 1.2375 0.875 1.875 C1.93720042 4.13325765 1.93720042 4.13325765 4 6 C4.17495606 8.50920846 4.23169569 10.90624941 4.1953125 13.4140625 C4.1924826 14.14370209 4.18965271 14.87334167 4.18673706 15.62509155 C4.17553002 17.95856028 4.1504251 20.29164703 4.125 22.625 C4.11497085 24.20572363 4.10584489 25.78645327 4.09765625 27.3671875 C4.07558905 31.24493914 4.04105615 35.12240478 4 39 C3.01 39 2.02 39 1 39 C1 39.66 1 40.32 1 41 C0.34 41 -0.32 41 -1 41 C-1.02481234 36.12532925 -1.0429131 31.25069568 -1.05493164 26.37597656 C-1.05994473 24.71939452 -1.06675689 23.06281687 -1.07543945 21.40625 C-1.08763793 19.01821811 -1.09325867 16.63024498 -1.09765625 14.2421875 C-1.10281754 13.50757294 -1.10797882 12.77295837 -1.11329651 12.01608276 C-1.11374023 7.90221178 -0.80210299 4.03549391 0 0 Z " fill="#D3AA5D" transform="translate(202,234)"/>
<path d="M0 0 C0.33 0 0.66 0 1 0 C2.21909828 8.51448959 2.11268452 16.98473477 2.0625 25.5625 C2.0574746 27.06314955 2.05291353 28.56380072 2.04882812 30.06445312 C2.03790576 33.70966977 2.02069856 37.35482422 2 41 C1.01 41.495 1.01 41.495 0 42 C-0.495 40.515 -0.495 40.515 -1 39 C-1.66 39.66 -2.32 40.32 -3 41 C-3.44632539 13.58875473 -3.44632539 13.58875473 -1 1 C-0.67 0.67 -0.34 0.34 0 0 Z " fill="#A26B74" transform="translate(204,199)"/>
<path d="M0 0 C0.99 0 1.98 0 3 0 C3.20753906 0.65226562 3.41507813 1.30453125 3.62890625 1.9765625 C5.84666987 8.26795888 8.2802223 12.40357365 14 16 C16.85506049 16.95168683 18.90937282 17.1900946 21.88671875 17.31640625 C22.82451172 17.35830078 23.76230469 17.40019531 24.72851562 17.44335938 C25.70498047 17.48267578 26.68144531 17.52199219 27.6875 17.5625 C28.67556641 17.60568359 29.66363281 17.64886719 30.68164062 17.69335938 C33.12095546 17.79941654 35.56037113 17.90147714 38 18 C38 18.33 38 18.66 38 19 C34.4375173 19.02913821 30.87506546 19.04684529 27.3125 19.0625 C25.80139648 19.07506836 25.80139648 19.07506836 24.25976562 19.08789062 C23.28330078 19.09111328 22.30683594 19.09433594 21.30078125 19.09765625 C20.40528564 19.10289307 19.50979004 19.10812988 18.5871582 19.11352539 C15.96358241 18.99840198 13.55706947 18.58234285 11 18 C11 18.66 11 19.32 11 20 C6.0517322 17.98403904 2.91222022 14.56380609 0.25 10 C-0.87813214 7.29248287 -1.57465675 4.8923341 -2 2 C-1.34 2 -0.68 2 0 2 C0 1.34 0 0.68 0 0 Z " fill="#EDCE5C" transform="translate(203,273)"/>
<path d="M0 0 C0.28875 0.61875 0.5775 1.2375 0.875 1.875 C1.93720042 4.13325765 1.93720042 4.13325765 4 6 C4.14507695 8.74485593 4.18652423 11.38480543 4.125 14.125 C4.11597656 14.87910156 4.10695312 15.63320312 4.09765625 16.41015625 C4.0740687 18.27357254 4.03819719 20.13682593 4 22 C3.34 22 2.68 22 2 22 C1.34 22.66 0.68 23.32 0 24 C-1.54835926 20.90328147 -1.14325002 17.64450461 -1.125 14.25 C-1.12886719 13.54617187 -1.13273438 12.84234375 -1.13671875 12.1171875 C-1.1290116 7.97073913 -0.80922888 4.0846791 0 0 Z " fill="#BD8E61" transform="translate(202,234)"/>
<path d="M0 0 C0.99 0 1.98 0 3 0 C5.27837542 2.27837542 5.96646289 3.50812237 6.1875 6.75 C6.125625 7.4925 6.06375 8.235 6 9 C4.02 9.33 2.04 9.66 0 10 C0 10.66 0 11.32 0 12 C-4.75 11.125 -4.75 11.125 -7 10 C-6.67 8.68 -6.34 7.36 -6 6 C-5.38125 5.938125 -4.7625 5.87625 -4.125 5.8125 C-1.72238859 5.171081 -1.72238859 5.171081 -0.75 2.4375 C-0.5025 1.633125 -0.255 0.82875 0 0 Z " fill="#FBD733" transform="translate(250,291)"/>
<path d="M0 0 C-1 6 -2 12 -3 18 C-3.33 18 -3.66 18 -4 18 C-4.33 16.35 -4.66 14.7 -5 13 C-5.66 17.29 -6.32 21.58 -7 26 C-7.33 26 -7.66 26 -8 26 C-8.56900876 8.82436535 -8.56900876 8.82436535 -5 1 C-3 0 -3 0 0 0 Z " fill="#854987" transform="translate(209,190)"/>
<path d="M0 0 C0.33 0 0.66 0 1 0 C1 9.9 1 19.8 1 30 C3.97 29.67 6.94 29.34 10 29 C10.33 27.02 10.66 25.04 11 23 C11.33 23 11.66 23 12 23 C12.125 26.375 12.125 26.375 12 30 C11.34 30.66 10.68 31.32 10 32 C6.7 31.67 3.4 31.34 0 31 C0 20.77 0 10.54 0 0 Z " fill="#2A1896" transform="translate(231,210)"/>
<path d="M0 0 C3.63 0 7.26 0 11 0 C13.63537118 7.90611355 13.17981101 15.76865163 13 24 C12.34 24.33 11.68 24.66 11 25 C10.95101562 23.75863281 10.90203125 22.51726562 10.8515625 21.23828125 C10.77650201 19.59633306 10.70095561 17.95440703 10.625 16.3125 C10.5940625 15.49587891 10.563125 14.67925781 10.53125 13.83789062 C10.32044076 9.49873367 9.98261241 5.95716543 8 2 C5.36 1.67 2.72 1.34 0 1 C0 0.67 0 0.34 0 0 Z " fill="#200F8B" transform="translate(232,208)"/>
<path d="M0 0 C0.99 0 1.98 0 3 0 C4.59138085 4.17737474 5.21278058 7.53160785 5 12 C3.68 12 2.36 12 1 12 C0.01 8.7 -0.98 5.4 -2 2 C-1.34 2 -0.68 2 0 2 C0 1.34 0 0.68 0 0 Z " fill="#E2C04D" transform="translate(203,273)"/>
<path d="M0 0 C0.66 0.66 1.32 1.32 2 2 C1.92334266 6.13949658 1.5829914 8.31412776 -1.125 11.5 C-4.87182586 13.45486566 -6.9597863 12.99099581 -11 12 C-11.66 11.67 -12.32 11.34 -13 11 C-13 10.34 -13 9.68 -13 9 C-9.95613276 8.91773332 -7.92824652 9.02391783 -5 10 C-2.3430809 9.12085312 -2.3430809 9.12085312 0 8 C0 5.36 0 2.72 0 0 Z " fill="#6E3B83" transform="translate(255,176)"/>
<path d="M0 0 C0 0.66 0 1.32 0 2 C-0.99 2 -1.98 2 -3 2 C-3 2.99 -3 3.98 -3 5 C-4.53125 6.38671875 -4.53125 6.38671875 -6.5 7.6875 C-7.47453125 8.34298828 -7.47453125 8.34298828 -8.46875 9.01171875 C-8.9740625 9.33785156 -9.479375 9.66398438 -10 10 C-10 9.34 -10 8.68 -10 8 C-10.66 7.67 -11.32 7.34 -12 7 C-11.360625 6.731875 -10.72125 6.46375 -10.0625 6.1875 C-7.66868314 5.11332248 -7.66868314 5.11332248 -7 2 C-4.56723614 0.81480735 -2.71982714 0 0 0 Z " fill="#7C398D" transform="translate(219,182)"/>
<path d="M0 0 C2.48898654 7.46695963 0.27261352 15.44385725 -1 23 C-1.33 23 -1.66 23 -2 23 C-2.05447822 20.47886908 -2.09389852 17.9589415 -2.125 15.4375 C-2.14175781 14.73302734 -2.15851563 14.02855469 -2.17578125 13.30273438 C-2.22022044 8.48108178 -1.52768004 4.57702562 0 0 Z " fill="#855378" transform="translate(203,193)"/>
<path d="M0 0 C1.77410934 3.02255666 2.20346075 4.86197197 1.7578125 8.328125 C1.66113281 9.12734375 1.56445312 9.9265625 1.46484375 10.75 C1.35269531 11.575 1.24054688 12.4 1.125 13.25 C0.96837891 14.51070312 0.96837891 14.51070312 0.80859375 15.796875 C0.54995635 17.86597421 0.27642363 19.93320179 0 22 C-0.33 22 -0.66 22 -1 22 C-1.02716824 19.45826023 -1.04691969 16.91681585 -1.0625 14.375 C-1.07087891 13.66214844 -1.07925781 12.94929687 -1.08789062 12.21484375 C-1.10710296 8.02655562 -0.8267327 4.1271538 0 0 Z " fill="#B48869" transform="translate(202,234)"/>
<path d="M0 0 C1.8871875 0.061875 1.8871875 0.061875 3.8125 0.125 C4.1425 1.445 4.4725 2.765 4.8125 4.125 C3.905 3.75375 2.9975 3.3825 2.0625 3 C-1.06847015 1.82140701 -1.06847015 1.82140701 -3.5625 3 C-4.09875 3.37125 -4.635 3.7425 -5.1875 4.125 C-5.8475 3.465 -6.5075 2.805 -7.1875 2.125 C-4.09861478 0.06574319 -3.47814073 -0.1140374 0 0 Z " fill="#F7CE37" transform="translate(248.1875,288.875)"/>
<path d="M0 0 C0.33 0 0.66 0 1 0 C1.125 3.375 1.125 3.375 1 7 C0.34 7.66 -0.32 8.32 -1 9 C-3.72869407 8.96712417 -6.2966618 8.43602229 -9 8 C-9 7.67 -9 7.34 -9 7 C-6.36 6.67 -3.72 6.34 -1 6 C-0.67 4.02 -0.34 2.04 0 0 Z " fill="#1E0B90" transform="translate(242,233)"/>
<path d="M0 0 C2 2 2 2 2.3125 4.4375 C1.95209822 7.39279457 1.28773145 8.18887927 -1 10 C-1.125 2.25 -1.125 2.25 0 0 Z " fill="#C99858" transform="translate(203,248)"/>
</svg>
